# MagicaVoxel @ Ephtracy

# group
g med tree

# material
mtllib med tree.mtl
usemtl palette

# normals
vn -1 0 0
vn 1 0 0
vn 0 0 1
vn 0 0 -1
vn 0 -1 0
vn 0 1 0

# texcoords
vt 0.771484 0.5
vt 0.794922 0.5
vt 0.865234 0.5

# verts
v -4 3 13
v -4 3 8
v -4 4 13
v -4 4 8
v -4 6 13
v -4 6 8
v -4 7 13
v -4 7 8
v -4 9 13
v -4 9 8
v -4 10 13
v -4 10 8
v -3 0 12
v -3 0 9
v -3 3 12
v -3 3 9
v 0 0 12
v 0 0 9
v 0 3 12
v 0 3 9
v 1 3 13
v 1 3 8
v 1 4 13
v 1 4 8
v 1 6 13
v 1 6 8
v 1 7 13
v 1 7 8
v 1 9 13
v 1 9 8
v 1 10 13
v 1 10 8
v -4 3 13
v -4 4 13
v -4 6 13
v -4 7 13
v -4 9 13
v -4 10 13
v 1 3 13
v 1 4 13
v 1 6 13
v 1 7 13
v 1 9 13
v 1 10 13
v -3 0 12
v -3 3 12
v 0 0 12
v 0 3 12
v -3 0 9
v -3 3 9
v 0 0 9
v 0 3 9
v -4 3 8
v -4 4 8
v -4 6 8
v -4 7 8
v -4 9 8
v -4 10 8
v 1 3 8
v 1 4 8
v 1 6 8
v 1 7 8
v 1 9 8
v 1 10 8
v -3 0 12
v 0 0 12
v -3 0 9
v 0 0 9
v -4 3 13
v 1 3 13
v -3 3 12
v 0 3 12
v -3 3 9
v 0 3 9
v -4 3 8
v 1 3 8
v -4 10 13
v 1 10 13
v -4 10 8
v 1 10 8

# faces
f 3/2/1 2/2/1 1/2/1
f 4/2/1 2/2/1 3/2/1
f 5/1/1 4/1/1 3/1/1
f 6/1/1 4/1/1 5/1/1
f 7/2/1 6/2/1 5/2/1
f 8/2/1 6/2/1 7/2/1
f 9/1/1 8/1/1 7/1/1
f 10/1/1 8/1/1 9/1/1
f 11/2/1 10/2/1 9/2/1
f 12/2/1 10/2/1 11/2/1
f 15/3/1 14/3/1 13/3/1
f 16/3/1 14/3/1 15/3/1
f 17/3/2 18/3/2 19/3/2
f 19/3/2 18/3/2 20/3/2
f 21/2/2 22/2/2 23/2/2
f 23/2/2 22/2/2 24/2/2
f 23/1/2 24/1/2 25/1/2
f 25/1/2 24/1/2 26/1/2
f 25/2/2 26/2/2 27/2/2
f 27/2/2 26/2/2 28/2/2
f 27/1/2 28/1/2 29/1/2
f 29/1/2 28/1/2 30/1/2
f 29/2/2 30/2/2 31/2/2
f 31/2/2 30/2/2 32/2/2
f 39/2/3 34/2/3 33/2/3
f 40/1/3 35/1/3 34/1/3
f 40/2/3 34/2/3 39/2/3
f 41/2/3 36/2/3 35/2/3
f 41/1/3 35/1/3 40/1/3
f 42/1/3 37/1/3 36/1/3
f 42/2/3 36/2/3 41/2/3
f 43/2/3 38/2/3 37/2/3
f 43/1/3 37/1/3 42/1/3
f 44/2/3 38/2/3 43/2/3
f 47/3/3 46/3/3 45/3/3
f 48/3/3 46/3/3 47/3/3
f 49/3/4 50/3/4 51/3/4
f 51/3/4 50/3/4 52/3/4
f 53/2/4 54/2/4 59/2/4
f 54/1/4 55/1/4 60/1/4
f 59/2/4 54/2/4 60/2/4
f 55/2/4 56/2/4 61/2/4
f 60/1/4 55/1/4 61/1/4
f 56/1/4 57/1/4 62/1/4
f 61/2/4 56/2/4 62/2/4
f 57/2/4 58/2/4 63/2/4
f 62/1/4 57/1/4 63/1/4
f 63/2/4 58/2/4 64/2/4
f 67/3/5 66/3/5 65/3/5
f 68/3/5 66/3/5 67/3/5
f 71/2/5 70/2/5 69/2/5
f 72/2/5 70/2/5 71/2/5
f 73/2/5 71/2/5 69/2/5
f 74/2/5 70/2/5 72/2/5
f 75/2/5 73/2/5 69/2/5
f 75/2/5 74/2/5 73/2/5
f 76/2/5 70/2/5 74/2/5
f 76/2/5 74/2/5 75/2/5
f 77/2/6 78/2/6 79/2/6
f 79/2/6 78/2/6 80/2/6
