# MagicaVoxel @ Ephtracy

# group
g Chicken

# material
mtllib Chicken.mtl
usemtl palette

# normals
vn -1 0 0
vn 1 0 0
vn 0 0 1
vn 0 0 -1
vn 0 -1 0
vn 0 1 0

# texcoords
vt 0.0214844 0.5
vt 0.126953 0.5
vt 0.841797 0.5
vt 0.958984 0.5
vt 0.994141 0.5

# verts
v -5 0 11
v -5 0 7
v -5 1 11
v -5 1 7
v -5 4 10
v -5 4 6
v -5 6 10
v -5 6 6
v -4 1 9
v -4 1 8
v -4 4 12
v -4 4 10
v -4 4 9
v -4 4 8
v -4 4 6
v -4 4 4
v -4 6 10
v -4 6 6
v -4 7 7
v -4 7 4
v -4 9 11
v -4 9 10
v -4 10 11
v -4 10 10
v -4 11 12
v -4 11 7
v -3 0 11
v -3 0 10
v -3 1 11
v -3 1 10
v -3 4 4
v -3 4 3
v -3 7 4
v -3 7 3
v -2 7 13
v -2 7 12
v -2 8 14
v -2 8 13
v -2 8 12
v -2 9 14
v -2 9 12
v -2 11 11
v -2 11 8
v -2 12 11
v -2 12 8
v 0 0 11
v 0 0 7
v 0 1 11
v 0 1 7
v 1 1 9
v 1 1 8
v 1 4 9
v 1 4 8
v 2 0 11
v 2 0 10
v 2 1 11
v 2 1 10
v -4 0 11
v -4 0 10
v -4 1 11
v -4 1 10
v -3 1 9
v -3 1 8
v -3 4 9
v -3 4 8
v -2 0 11
v -2 0 7
v -2 1 11
v -2 1 7
v 0 7 13
v 0 7 12
v 0 8 14
v 0 8 13
v 0 8 12
v 0 9 14
v 0 9 12
v 0 11 11
v 0 11 8
v 0 12 11
v 0 12 8
v 1 0 11
v 1 0 10
v 1 1 11
v 1 1 10
v 1 4 4
v 1 4 3
v 1 7 4
v 1 7 3
v 2 1 9
v 2 1 8
v 2 4 12
v 2 4 10
v 2 4 9
v 2 4 8
v 2 4 6
v 2 4 4
v 2 6 10
v 2 6 6
v 2 7 7
v 2 7 4
v 2 9 11
v 2 9 10
v 2 10 11
v 2 10 10
v 2 11 12
v 2 11 7
v 3 0 11
v 3 0 7
v 3 1 11
v 3 1 7
v 3 4 10
v 3 4 6
v 3 6 10
v 3 6 6
v -2 8 14
v -2 9 14
v 0 8 14
v 0 9 14
v -2 7 13
v -2 8 13
v 0 7 13
v 0 8 13
v -4 4 12
v -4 11 12
v -2 7 12
v -2 8 12
v -2 9 12
v 0 7 12
v 0 8 12
v 0 9 12
v 2 4 12
v 2 11 12
v -5 0 11
v -5 1 11
v -4 0 11
v -4 1 11
v -3 0 11
v -3 1 11
v -2 0 11
v -2 1 11
v -2 11 11
v -2 12 11
v 0 0 11
v 0 1 11
v 0 11 11
v 0 12 11
v 1 0 11
v 1 1 11
v 2 0 11
v 2 1 11
v 3 0 11
v 3 1 11
v -5 4 10
v -5 6 10
v -4 0 10
v -4 1 10
v -4 4 10
v -4 6 10
v -3 0 10
v -3 1 10
v 1 0 10
v 1 1 10
v 2 0 10
v 2 1 10
v 2 4 10
v 2 6 10
v 3 4 10
v 3 6 10
v -4 1 9
v -4 4 9
v -3 1 9
v -3 4 9
v 1 1 9
v 1 4 9
v 2 1 9
v 2 4 9
v -4 1 8
v -4 4 8
v -3 1 8
v -3 4 8
v -2 11 8
v -2 12 8
v 0 11 8
v 0 12 8
v 1 1 8
v 1 4 8
v 2 1 8
v 2 4 8
v -5 0 7
v -5 1 7
v -4 7 7
v -4 11 7
v -2 0 7
v -2 1 7
v 0 0 7
v 0 1 7
v 2 7 7
v 2 11 7
v 3 0 7
v 3 1 7
v -5 4 6
v -5 6 6
v -4 4 6
v -4 6 6
v 2 4 6
v 2 6 6
v 3 4 6
v 3 6 6
v -4 4 4
v -4 7 4
v -3 4 4
v -3 7 4
v 1 4 4
v 1 7 4
v 2 4 4
v 2 7 4
v -3 4 3
v -3 7 3
v 1 4 3
v 1 7 3
v -5 0 11
v -4 0 11
v -3 0 11
v -2 0 11
v 0 0 11
v 1 0 11
v 2 0 11
v 3 0 11
v -4 0 10
v -3 0 10
v 1 0 10
v 2 0 10
v -5 0 7
v -2 0 7
v 0 0 7
v 3 0 7
v -4 4 12
v 2 4 12
v -5 4 10
v -4 4 10
v 2 4 10
v 3 4 10
v -4 4 9
v -3 4 9
v 1 4 9
v 2 4 9
v -4 4 8
v -3 4 8
v 1 4 8
v 2 4 8
v -5 4 6
v -4 4 6
v 2 4 6
v 3 4 6
v -4 4 4
v -3 4 4
v 1 4 4
v 2 4 4
v -3 4 3
v 1 4 3
v -2 7 13
v 0 7 13
v -2 7 12
v 0 7 12
v -2 8 14
v 0 8 14
v -2 8 13
v 0 8 13
v -5 1 11
v -4 1 11
v -3 1 11
v -2 1 11
v 0 1 11
v 1 1 11
v 2 1 11
v 3 1 11
v -4 1 10
v -3 1 10
v 1 1 10
v 2 1 10
v -4 1 9
v -3 1 9
v 1 1 9
v 2 1 9
v -4 1 8
v -3 1 8
v 1 1 8
v 2 1 8
v -5 1 7
v -2 1 7
v 0 1 7
v 3 1 7
v -5 6 10
v -4 6 10
v 2 6 10
v 3 6 10
v -5 6 6
v -4 6 6
v 2 6 6
v 3 6 6
v -4 7 7
v 2 7 7
v -4 7 4
v -3 7 4
v 1 7 4
v 2 7 4
v -3 7 3
v 1 7 3
v -2 9 14
v 0 9 14
v -2 9 12
v 0 9 12
v -4 11 12
v 2 11 12
v -2 11 11
v 0 11 11
v -2 11 8
v 0 11 8
v -4 11 7
v 2 11 7
v -2 12 11
v 0 12 11
v -2 12 8
v 0 12 8

# faces
f 3/3/1 2/3/1 1/3/1
f 4/3/1 2/3/1 3/3/1
f 7/4/1 6/4/1 5/4/1
f 8/4/1 6/4/1 7/4/1
f 13/3/1 10/3/1 9/3/1
f 14/3/1 10/3/1 13/3/1
f 17/4/1 12/4/1 11/4/1
f 18/4/1 16/4/1 15/4/1
f 19/4/1 18/4/1 17/4/1
f 20/4/1 16/4/1 18/4/1
f 20/4/1 18/4/1 19/4/1
f 21/4/1 17/4/1 11/4/1
f 21/4/1 19/4/1 17/4/1
f 22/4/1 19/4/1 21/4/1
f 23/4/1 21/4/1 11/4/1
f 23/5/1 22/5/1 21/5/1
f 24/4/1 19/4/1 22/4/1
f 24/5/1 22/5/1 23/5/1
f 25/4/1 23/4/1 11/4/1
f 25/4/1 24/4/1 23/4/1
f 26/4/1 19/4/1 24/4/1
f 26/4/1 24/4/1 25/4/1
f 29/3/1 28/3/1 27/3/1
f 30/3/1 28/3/1 29/3/1
f 33/4/1 32/4/1 31/4/1
f 34/4/1 32/4/1 33/4/1
f 38/2/1 36/2/1 35/2/1
f 39/2/1 36/2/1 38/2/1
f 40/1/1 38/1/1 37/1/1
f 40/1/1 39/1/1 38/1/1
f 41/1/1 39/1/1 40/1/1
f 44/2/1 43/2/1 42/2/1
f 45/2/1 43/2/1 44/2/1
f 48/3/1 47/3/1 46/3/1
f 49/3/1 47/3/1 48/3/1
f 52/3/1 51/3/1 50/3/1
f 53/3/1 51/3/1 52/3/1
f 56/3/1 55/3/1 54/3/1
f 57/3/1 55/3/1 56/3/1
f 58/3/2 59/3/2 60/3/2
f 60/3/2 59/3/2 61/3/2
f 62/3/2 63/3/2 64/3/2
f 64/3/2 63/3/2 65/3/2
f 66/3/2 67/3/2 68/3/2
f 68/3/2 67/3/2 69/3/2
f 70/2/2 71/2/2 73/2/2
f 73/2/2 71/2/2 74/2/2
f 72/1/2 73/1/2 75/1/2
f 73/1/2 74/1/2 75/1/2
f 75/1/2 74/1/2 76/1/2
f 77/2/2 78/2/2 79/2/2
f 79/2/2 78/2/2 80/2/2
f 81/3/2 82/3/2 83/3/2
f 83/3/2 82/3/2 84/3/2
f 85/4/2 86/4/2 87/4/2
f 87/4/2 86/4/2 88/4/2
f 89/3/2 90/3/2 93/3/2
f 93/3/2 90/3/2 94/3/2
f 91/4/2 92/4/2 97/4/2
f 95/4/2 96/4/2 98/4/2
f 97/4/2 98/4/2 99/4/2
f 98/4/2 96/4/2 100/4/2
f 99/4/2 98/4/2 100/4/2
f 91/4/2 97/4/2 101/4/2
f 97/4/2 99/4/2 101/4/2
f 101/4/2 99/4/2 102/4/2
f 91/4/2 101/4/2 103/4/2
f 101/5/2 102/5/2 103/5/2
f 102/4/2 99/4/2 104/4/2
f 103/5/2 102/5/2 104/5/2
f 91/4/2 103/4/2 105/4/2
f 103/4/2 104/4/2 105/4/2
f 104/4/2 99/4/2 106/4/2
f 105/4/2 104/4/2 106/4/2
f 107/3/2 108/3/2 109/3/2
f 109/3/2 108/3/2 110/3/2
f 111/4/2 112/4/2 113/4/2
f 113/4/2 112/4/2 114/4/2
f 117/1/3 116/1/3 115/1/3
f 118/1/3 116/1/3 117/1/3
f 121/2/3 120/2/3 119/2/3
f 122/2/3 120/2/3 121/2/3
f 125/4/3 124/4/3 123/4/3
f 126/4/3 124/4/3 125/4/3
f 127/4/3 124/4/3 126/4/3
f 128/4/3 125/4/3 123/4/3
f 130/4/3 124/4/3 127/4/3
f 131/4/3 129/4/3 128/4/3
f 131/4/3 130/4/3 129/4/3
f 131/4/3 128/4/3 123/4/3
f 132/4/3 124/4/3 130/4/3
f 132/4/3 130/4/3 131/4/3
f 135/3/3 134/3/3 133/3/3
f 136/3/3 134/3/3 135/3/3
f 139/3/3 138/3/3 137/3/3
f 140/3/3 138/3/3 139/3/3
f 145/2/3 142/2/3 141/2/3
f 146/2/3 142/2/3 145/2/3
f 147/3/3 144/3/3 143/3/3
f 148/3/3 144/3/3 147/3/3
f 151/3/3 150/3/3 149/3/3
f 152/3/3 150/3/3 151/3/3
f 157/4/3 154/4/3 153/4/3
f 158/4/3 154/4/3 157/4/3
f 159/3/3 156/3/3 155/3/3
f 160/3/3 156/3/3 159/3/3
f 163/3/3 162/3/3 161/3/3
f 164/3/3 162/3/3 163/3/3
f 167/4/3 166/4/3 165/4/3
f 168/4/3 166/4/3 167/4/3
f 171/3/3 170/3/3 169/3/3
f 172/3/3 170/3/3 171/3/3
f 175/3/3 174/3/3 173/3/3
f 176/3/3 174/3/3 175/3/3
f 177/3/4 178/3/4 179/3/4
f 179/3/4 178/3/4 180/3/4
f 181/2/4 182/2/4 183/2/4
f 183/2/4 182/2/4 184/2/4
f 185/3/4 186/3/4 187/3/4
f 187/3/4 186/3/4 188/3/4
f 189/3/4 190/3/4 193/3/4
f 193/3/4 190/3/4 194/3/4
f 191/4/4 192/4/4 197/4/4
f 197/4/4 192/4/4 198/4/4
f 195/3/4 196/3/4 199/3/4
f 199/3/4 196/3/4 200/3/4
f 201/4/4 202/4/4 203/4/4
f 203/4/4 202/4/4 204/4/4
f 205/4/4 206/4/4 207/4/4
f 207/4/4 206/4/4 208/4/4
f 209/4/4 210/4/4 211/4/4
f 211/4/4 210/4/4 212/4/4
f 213/4/4 214/4/4 215/4/4
f 215/4/4 214/4/4 216/4/4
f 217/4/4 218/4/4 219/4/4
f 219/4/4 218/4/4 220/4/4
f 229/3/5 222/3/5 221/3/5
f 230/3/5 224/3/5 223/3/5
f 231/3/5 226/3/5 225/3/5
f 232/3/5 228/3/5 227/3/5
f 233/3/5 229/3/5 221/3/5
f 233/3/5 230/3/5 229/3/5
f 234/3/5 224/3/5 230/3/5
f 234/3/5 230/3/5 233/3/5
f 235/3/5 231/3/5 225/3/5
f 235/3/5 232/3/5 231/3/5
f 236/3/5 228/3/5 232/3/5
f 236/3/5 232/3/5 235/3/5
f 240/4/5 238/4/5 237/4/5
f 241/4/5 238/4/5 240/4/5
f 243/4/5 240/4/5 239/4/5
f 243/4/5 242/4/5 241/4/5
f 243/4/5 241/4/5 240/4/5
f 244/4/5 242/4/5 243/4/5
f 245/4/5 242/4/5 244/4/5
f 246/4/5 242/4/5 245/4/5
f 247/4/5 243/4/5 239/4/5
f 248/4/5 245/4/5 244/4/5
f 249/4/5 245/4/5 248/4/5
f 250/4/5 242/4/5 246/4/5
f 251/4/5 249/4/5 248/4/5
f 251/4/5 250/4/5 249/4/5
f 251/4/5 247/4/5 239/4/5
f 251/4/5 248/4/5 247/4/5
f 252/4/5 250/4/5 251/4/5
f 253/4/5 242/4/5 250/4/5
f 253/4/5 250/4/5 252/4/5
f 254/4/5 242/4/5 253/4/5
f 255/4/5 253/4/5 252/4/5
f 256/4/5 253/4/5 255/4/5
f 257/4/5 253/4/5 256/4/5
f 258/4/5 253/4/5 257/4/5
f 259/4/5 257/4/5 256/4/5
f 260/4/5 257/4/5 259/4/5
f 263/2/5 262/2/5 261/2/5
f 264/2/5 262/2/5 263/2/5
f 267/1/5 266/1/5 265/1/5
f 268/1/5 266/1/5 267/1/5
f 269/3/6 270/3/6 277/3/6
f 271/3/6 272/3/6 278/3/6
f 273/3/6 274/3/6 279/3/6
f 275/3/6 276/3/6 280/3/6
f 269/3/6 277/3/6 281/3/6
f 277/3/6 278/3/6 281/3/6
f 278/3/6 272/3/6 282/3/6
f 281/3/6 278/3/6 282/3/6
f 273/3/6 279/3/6 283/3/6
f 279/3/6 280/3/6 283/3/6
f 280/3/6 276/3/6 284/3/6
f 283/3/6 280/3/6 284/3/6
f 269/3/6 281/3/6 285/3/6
f 282/3/6 272/3/6 286/3/6
f 273/3/6 283/3/6 287/3/6
f 284/3/6 276/3/6 288/3/6
f 269/3/6 285/3/6 289/3/6
f 285/3/6 286/3/6 289/3/6
f 286/3/6 272/3/6 290/3/6
f 289/3/6 286/3/6 290/3/6
f 287/3/6 288/3/6 291/3/6
f 273/3/6 287/3/6 291/3/6
f 288/3/6 276/3/6 292/3/6
f 291/3/6 288/3/6 292/3/6
f 293/4/6 294/4/6 297/4/6
f 297/4/6 294/4/6 298/4/6
f 295/4/6 296/4/6 299/4/6
f 299/4/6 296/4/6 300/4/6
f 301/4/6 302/4/6 303/4/6
f 303/4/6 302/4/6 304/4/6
f 304/4/6 302/4/6 305/4/6
f 305/4/6 302/4/6 306/4/6
f 304/4/6 305/4/6 307/4/6
f 307/4/6 305/4/6 308/4/6
f 309/1/6 310/1/6 311/1/6
f 311/1/6 310/1/6 312/1/6
f 313/4/6 314/4/6 315/4/6
f 315/4/6 314/4/6 316/4/6
f 313/4/6 315/4/6 317/4/6
f 316/4/6 314/4/6 318/4/6
f 313/4/6 317/4/6 319/4/6
f 317/4/6 318/4/6 319/4/6
f 318/4/6 314/4/6 320/4/6
f 319/4/6 318/4/6 320/4/6
f 321/2/6 322/2/6 323/2/6
f 323/2/6 322/2/6 324/2/6
