# MagicaVoxel @ Ephtracy

# group
g small tree

# material
mtllib small tree.mtl
usemtl palette

# normals
vn -1 0 0
vn 1 0 0
vn 0 0 1
vn 0 0 -1
vn 0 -1 0
vn 0 1 0

# texcoords
vt 0.771484 0.5
vt 0.794922 0.5
vt 0.865234 0.5

# verts
v -4 3 13
v -4 3 8
v -4 4 13
v -4 4 8
v -4 6 13
v -4 6 8
v -4 7 13
v -4 7 8
v -3 0 12
v -3 0 9
v -3 3 12
v -3 3 9
v 0 0 12
v 0 0 9
v 0 3 12
v 0 3 9
v 1 3 13
v 1 3 8
v 1 4 13
v 1 4 8
v 1 6 13
v 1 6 8
v 1 7 13
v 1 7 8
v -4 3 13
v -4 4 13
v -4 6 13
v -4 7 13
v 1 3 13
v 1 4 13
v 1 6 13
v 1 7 13
v -3 0 12
v -3 3 12
v 0 0 12
v 0 3 12
v -3 0 9
v -3 3 9
v 0 0 9
v 0 3 9
v -4 3 8
v -4 4 8
v -4 6 8
v -4 7 8
v 1 3 8
v 1 4 8
v 1 6 8
v 1 7 8
v -3 0 12
v 0 0 12
v -3 0 9
v 0 0 9
v -4 3 13
v 1 3 13
v -3 3 12
v 0 3 12
v -3 3 9
v 0 3 9
v -4 3 8
v 1 3 8
v -4 7 13
v 1 7 13
v -4 7 8
v 1 7 8

# faces
f 3/2/1 2/2/1 1/2/1
f 4/2/1 2/2/1 3/2/1
f 5/1/1 4/1/1 3/1/1
f 6/1/1 4/1/1 5/1/1
f 7/2/1 6/2/1 5/2/1
f 8/2/1 6/2/1 7/2/1
f 11/3/1 10/3/1 9/3/1
f 12/3/1 10/3/1 11/3/1
f 13/3/2 14/3/2 15/3/2
f 15/3/2 14/3/2 16/3/2
f 17/2/2 18/2/2 19/2/2
f 19/2/2 18/2/2 20/2/2
f 19/1/2 20/1/2 21/1/2
f 21/1/2 20/1/2 22/1/2
f 21/2/2 22/2/2 23/2/2
f 23/2/2 22/2/2 24/2/2
f 29/2/3 26/2/3 25/2/3
f 30/1/3 27/1/3 26/1/3
f 30/2/3 26/2/3 29/2/3
f 31/2/3 28/2/3 27/2/3
f 31/1/3 27/1/3 30/1/3
f 32/2/3 28/2/3 31/2/3
f 35/3/3 34/3/3 33/3/3
f 36/3/3 34/3/3 35/3/3
f 37/3/4 38/3/4 39/3/4
f 39/3/4 38/3/4 40/3/4
f 41/2/4 42/2/4 45/2/4
f 42/1/4 43/1/4 46/1/4
f 45/2/4 42/2/4 46/2/4
f 43/2/4 44/2/4 47/2/4
f 46/1/4 43/1/4 47/1/4
f 47/2/4 44/2/4 48/2/4
f 51/3/5 50/3/5 49/3/5
f 52/3/5 50/3/5 51/3/5
f 55/2/5 54/2/5 53/2/5
f 56/2/5 54/2/5 55/2/5
f 57/2/5 55/2/5 53/2/5
f 58/2/5 54/2/5 56/2/5
f 59/2/5 57/2/5 53/2/5
f 59/2/5 58/2/5 57/2/5
f 60/2/5 54/2/5 58/2/5
f 60/2/5 58/2/5 59/2/5
f 61/2/6 62/2/6 63/2/6
f 63/2/6 62/2/6 64/2/6
