# MagicaVoxel @ Ephtracy

# group
g log1

# material
mtllib log1.mtl
usemtl palette

# normals
vn -1 0 0
vn 1 0 0
vn 0 0 1
vn 0 0 -1
vn 0 -1 0
vn 0 1 0

# texcoords
vt 0.396484 0.5
vt 0.701172 0.5

# verts
v -4 0 18
v -4 0 17
v -4 0 -17
v -4 0 -18
v -4 3 16
v -4 3 12
v -4 3 6
v -4 3 5
v -4 3 -1
v -4 3 -3
v -4 3 -6
v -4 3 -7
v -4 3 -14
v -4 3 -15
v -4 4 18
v -4 4 17
v -4 4 16
v -4 4 12
v -4 4 6
v -4 4 5
v -4 4 -1
v -4 4 -3
v -4 4 -6
v -4 4 -7
v -4 4 -14
v -4 4 -15
v -4 4 -17
v -4 4 -18
v -1 1 18
v -1 1 17
v -1 1 -17
v -1 1 -18
v -1 3 18
v -1 3 17
v -1 3 10
v -1 3 6
v -1 3 4
v -1 3 2
v -1 3 -4
v -1 3 -5
v -1 3 -8
v -1 3 -12
v -1 3 -15
v -1 3 -17
v -1 3 -18
v -3 1 18
v -3 1 17
v -3 1 -17
v -3 1 -18
v -3 3 18
v -3 3 17
v -3 3 11
v -3 3 9
v -3 3 3
v -3 3 -1
v -3 3 -6
v -3 3 -9
v -3 3 -14
v -3 3 -16
v -3 3 -17
v -3 3 -18
v 0 0 18
v 0 0 17
v 0 0 -17
v 0 0 -18
v 0 3 16
v 0 3 14
v 0 3 -2
v 0 3 -5
v 0 4 18
v 0 4 17
v 0 4 16
v 0 4 14
v 0 4 -2
v 0 4 -5
v 0 4 -17
v 0 4 -18
v -4 0 18
v -4 4 18
v -3 1 18
v -3 3 18
v -1 1 18
v -1 3 18
v 0 0 18
v 0 4 18
v -4 0 -18
v -4 4 -18
v -3 1 -18
v -3 3 -18
v -1 1 -18
v -1 3 -18
v 0 0 -18
v 0 4 -18
v -4 0 18
v 0 0 18
v -4 0 17
v 0 0 17
v -4 0 -17
v 0 0 -17
v -4 0 -18
v 0 0 -18
v -3 3 18
v -1 3 18
v -3 3 17
v -1 3 17
v -3 3 11
v -2 3 11
v -2 3 10
v -1 3 10
v -3 3 9
v -2 3 9
v -2 3 6
v -1 3 6
v -2 3 4
v -1 3 4
v -3 3 3
v -2 3 3
v -2 3 2
v -1 3 2
v -3 3 -1
v -2 3 -1
v -2 3 -4
v -1 3 -4
v -2 3 -5
v -1 3 -5
v -3 3 -6
v -2 3 -6
v -2 3 -8
v -1 3 -8
v -3 3 -9
v -2 3 -9
v -2 3 -12
v -1 3 -12
v -3 3 -14
v -2 3 -14
v -2 3 -15
v -1 3 -15
v -3 3 -16
v -2 3 -16
v -3 3 -17
v -2 3 -17
v -1 3 -17
v -3 3 -18
v -1 3 -18
v -3 1 18
v -1 1 18
v -3 1 17
v -1 1 17
v -3 1 -17
v -1 1 -17
v -3 1 -18
v -1 1 -18
v -4 4 18
v 0 4 18
v -4 4 17
v 0 4 17
v -4 4 16
v -3 4 16
v -1 4 16
v 0 4 16
v -1 4 14
v 0 4 14
v -4 4 12
v -3 4 12
v -3 4 11
v -2 4 11
v -2 4 10
v -1 4 10
v -3 4 9
v -2 4 9
v -4 4 6
v -3 4 6
v -2 4 6
v -1 4 6
v -4 4 5
v -3 4 5
v -2 4 4
v -1 4 4
v -3 4 3
v -2 4 3
v -2 4 2
v -1 4 2
v -4 4 -1
v -3 4 -1
v -2 4 -1
v -1 4 -2
v 0 4 -2
v -4 4 -3
v -3 4 -3
v -2 4 -4
v -1 4 -4
v -2 4 -5
v 0 4 -5
v -4 4 -6
v -2 4 -6
v -4 4 -7
v -3 4 -7
v -2 4 -8
v -1 4 -8
v -3 4 -9
v -2 4 -9
v -2 4 -12
v -1 4 -12
v -4 4 -14
v -2 4 -14
v -4 4 -15
v -3 4 -15
v -2 4 -15
v -1 4 -15
v -3 4 -16
v -2 4 -16
v -4 4 -17
v -2 4 -17
v -1 4 -17
v 0 4 -17
v -4 4 -18
v 0 4 -18

# faces
f 5/2/1 3/2/1 2/2/1
f 6/2/1 3/2/1 5/2/1
f 7/2/1 3/2/1 6/2/1
f 8/2/1 3/2/1 7/2/1
f 9/2/1 3/2/1 8/2/1
f 10/2/1 3/2/1 9/2/1
f 11/2/1 3/2/1 10/2/1
f 12/2/1 3/2/1 11/2/1
f 13/2/1 3/2/1 12/2/1
f 14/2/1 3/2/1 13/2/1
f 15/1/1 2/1/1 1/1/1
f 16/2/1 5/2/1 2/2/1
f 16/1/1 2/1/1 15/1/1
f 17/1/1 6/1/1 5/1/1
f 17/2/1 5/2/1 16/2/1
f 18/2/1 7/2/1 6/2/1
f 18/1/1 6/1/1 17/1/1
f 19/1/1 8/1/1 7/1/1
f 19/2/1 7/2/1 18/2/1
f 20/2/1 9/2/1 8/2/1
f 20/1/1 8/1/1 19/1/1
f 21/1/1 10/1/1 9/1/1
f 21/2/1 9/2/1 20/2/1
f 22/2/1 11/2/1 10/2/1
f 22/1/1 10/1/1 21/1/1
f 23/1/1 12/1/1 11/1/1
f 23/2/1 11/2/1 22/2/1
f 24/2/1 13/2/1 12/2/1
f 24/1/1 12/1/1 23/1/1
f 25/1/1 14/1/1 13/1/1
f 25/2/1 13/2/1 24/2/1
f 26/2/1 3/2/1 14/2/1
f 26/1/1 14/1/1 25/1/1
f 27/1/1 4/1/1 3/1/1
f 27/2/1 3/2/1 26/2/1
f 28/1/1 4/1/1 27/1/1
f 33/1/1 30/1/1 29/1/1
f 34/2/1 31/2/1 30/2/1
f 34/1/1 30/1/1 33/1/1
f 35/2/1 31/2/1 34/2/1
f 36/2/1 31/2/1 35/2/1
f 37/2/1 31/2/1 36/2/1
f 38/2/1 31/2/1 37/2/1
f 39/2/1 31/2/1 38/2/1
f 40/2/1 31/2/1 39/2/1
f 41/2/1 31/2/1 40/2/1
f 42/2/1 31/2/1 41/2/1
f 43/2/1 31/2/1 42/2/1
f 44/1/1 32/1/1 31/1/1
f 44/2/1 31/2/1 43/2/1
f 45/1/1 32/1/1 44/1/1
f 46/1/2 47/1/2 50/1/2
f 47/2/2 48/2/2 51/2/2
f 50/1/2 47/1/2 51/1/2
f 51/2/2 48/2/2 52/2/2
f 52/2/2 48/2/2 53/2/2
f 53/2/2 48/2/2 54/2/2
f 54/2/2 48/2/2 55/2/2
f 55/2/2 48/2/2 56/2/2
f 56/2/2 48/2/2 57/2/2
f 57/2/2 48/2/2 58/2/2
f 58/2/2 48/2/2 59/2/2
f 48/1/2 49/1/2 60/1/2
f 59/2/2 48/2/2 60/2/2
f 60/1/2 49/1/2 61/1/2
f 63/2/2 64/2/2 66/2/2
f 66/2/2 64/2/2 67/2/2
f 67/2/2 64/2/2 68/2/2
f 68/2/2 64/2/2 69/2/2
f 62/1/2 63/1/2 70/1/2
f 63/2/2 66/2/2 71/2/2
f 70/1/2 63/1/2 71/1/2
f 66/1/2 67/1/2 72/1/2
f 71/2/2 66/2/2 72/2/2
f 67/2/2 68/2/2 73/2/2
f 72/1/2 67/1/2 73/1/2
f 68/1/2 69/1/2 74/1/2
f 73/2/2 68/2/2 74/2/2
f 69/2/2 64/2/2 75/2/2
f 74/1/2 69/1/2 75/1/2
f 64/1/2 65/1/2 76/1/2
f 75/2/2 64/2/2 76/2/2
f 76/1/2 65/1/2 77/1/2
f 80/1/3 79/1/3 78/1/3
f 81/1/3 79/1/3 80/1/3
f 82/1/3 80/1/3 78/1/3
f 83/1/3 79/1/3 81/1/3
f 84/1/3 82/1/3 78/1/3
f 84/1/3 83/1/3 82/1/3
f 85/1/3 79/1/3 83/1/3
f 85/1/3 83/1/3 84/1/3
f 86/1/4 87/1/4 88/1/4
f 88/1/4 87/1/4 89/1/4
f 86/1/4 88/1/4 90/1/4
f 89/1/4 87/1/4 91/1/4
f 86/1/4 90/1/4 92/1/4
f 90/1/4 91/1/4 92/1/4
f 91/1/4 87/1/4 93/1/4
f 92/1/4 91/1/4 93/1/4
f 96/1/5 95/1/5 94/1/5
f 97/1/5 95/1/5 96/1/5
f 98/2/5 97/2/5 96/2/5
f 99/2/5 97/2/5 98/2/5
f 100/1/5 99/1/5 98/1/5
f 101/1/5 99/1/5 100/1/5
f 104/1/5 103/1/5 102/1/5
f 105/1/5 103/1/5 104/1/5
f 106/2/5 105/2/5 104/2/5
f 107/2/5 105/2/5 106/2/5
f 108/1/5 107/1/5 106/1/5
f 108/2/5 105/2/5 107/2/5
f 109/2/5 105/2/5 108/2/5
f 110/1/5 108/1/5 106/1/5
f 110/1/5 109/1/5 108/1/5
f 111/1/5 109/1/5 110/1/5
f 112/2/5 111/2/5 110/2/5
f 112/1/5 109/1/5 111/1/5
f 113/1/5 109/1/5 112/1/5
f 114/2/5 112/2/5 110/2/5
f 114/2/5 113/2/5 112/2/5
f 115/2/5 113/2/5 114/2/5
f 116/2/5 114/2/5 110/2/5
f 117/1/5 115/1/5 114/1/5
f 117/2/5 114/2/5 116/2/5
f 118/1/5 117/1/5 116/1/5
f 118/1/5 115/1/5 117/1/5
f 119/1/5 115/1/5 118/1/5
f 120/1/5 118/1/5 116/1/5
f 121/2/5 119/2/5 118/2/5
f 121/1/5 118/1/5 120/1/5
f 122/2/5 121/2/5 120/2/5
f 122/2/5 119/2/5 121/2/5
f 123/2/5 119/2/5 122/2/5
f 124/2/5 122/2/5 120/2/5
f 124/1/5 123/1/5 122/1/5
f 125/1/5 123/1/5 124/1/5
f 126/2/5 124/2/5 120/2/5
f 126/2/5 125/2/5 124/2/5
f 127/2/5 125/2/5 126/2/5
f 128/1/5 127/1/5 126/1/5
f 128/2/5 125/2/5 127/2/5
f 129/2/5 125/2/5 128/2/5
f 130/1/5 128/1/5 126/1/5
f 130/1/5 129/1/5 128/1/5
f 131/1/5 129/1/5 130/1/5
f 132/2/5 131/2/5 130/2/5
f 132/1/5 129/1/5 131/1/5
f 133/1/5 129/1/5 132/1/5
f 134/2/5 132/2/5 130/2/5
f 134/2/5 133/2/5 132/2/5
f 135/2/5 133/2/5 134/2/5
f 136/1/5 135/1/5 134/1/5
f 136/2/5 133/2/5 135/2/5
f 137/2/5 133/2/5 136/2/5
f 138/1/5 136/1/5 134/1/5
f 138/1/5 137/1/5 136/1/5
f 139/1/5 137/1/5 138/1/5
f 140/2/5 139/2/5 138/2/5
f 141/1/5 137/1/5 139/1/5
f 141/2/5 139/2/5 140/2/5
f 142/1/5 137/1/5 141/1/5
f 143/1/5 141/1/5 140/1/5
f 143/1/5 142/1/5 141/1/5
f 144/1/5 142/1/5 143/1/5
f 145/1/6 146/1/6 147/1/6
f 147/1/6 146/1/6 148/1/6
f 147/2/6 148/2/6 149/2/6
f 149/2/6 148/2/6 150/2/6
f 149/1/6 150/1/6 151/1/6
f 151/1/6 150/1/6 152/1/6
f 153/1/6 154/1/6 155/1/6
f 155/1/6 154/1/6 156/1/6
f 155/2/6 156/2/6 157/2/6
f 157/2/6 156/2/6 158/2/6
f 158/2/6 156/2/6 159/2/6
f 159/2/6 156/2/6 160/2/6
f 158/2/6 159/2/6 161/2/6
f 159/1/6 160/1/6 161/1/6
f 161/1/6 160/1/6 162/1/6
f 157/1/6 158/1/6 163/1/6
f 158/2/6 161/2/6 164/2/6
f 163/1/6 158/1/6 164/1/6
f 161/2/6 162/2/6 164/2/6
f 163/2/6 164/2/6 165/2/6
f 164/2/6 162/2/6 165/2/6
f 165/2/6 162/2/6 166/2/6
f 165/1/6 166/1/6 167/1/6
f 166/2/6 162/2/6 167/2/6
f 167/2/6 162/2/6 168/2/6
f 163/2/6 165/2/6 169/2/6
f 165/1/6 167/1/6 169/1/6
f 167/1/6 168/1/6 169/1/6
f 169/1/6 168/1/6 170/1/6
f 163/2/6 169/2/6 171/2/6
f 169/2/6 170/2/6 171/2/6
f 171/2/6 170/2/6 172/2/6
f 170/1/6 168/1/6 173/1/6
f 172/2/6 170/2/6 173/2/6
f 168/2/6 162/2/6 174/2/6
f 173/1/6 168/1/6 174/1/6
f 171/1/6 172/1/6 175/1/6
f 172/2/6 173/2/6 176/2/6
f 175/1/6 172/1/6 176/1/6
f 173/2/6 174/2/6 176/2/6
f 175/2/6 176/2/6 177/2/6
f 176/2/6 174/2/6 177/2/6
f 174/2/6 162/2/6 178/2/6
f 177/2/6 174/2/6 178/2/6
f 175/2/6 177/2/6 179/2/6
f 177/1/6 178/1/6 180/1/6
f 179/2/6 177/2/6 180/2/6
f 179/1/6 180/1/6 181/1/6
f 180/1/6 178/1/6 181/1/6
f 178/2/6 162/2/6 182/2/6
f 181/1/6 178/1/6 182/1/6
f 175/2/6 179/2/6 183/2/6
f 179/1/6 181/1/6 184/1/6
f 183/2/6 179/2/6 184/2/6
f 181/2/6 182/2/6 185/2/6
f 184/1/6 181/1/6 185/1/6
f 182/2/6 162/2/6 186/2/6
f 185/2/6 182/2/6 186/2/6
f 184/2/6 185/2/6 186/2/6
f 186/2/6 162/2/6 187/2/6
f 183/1/6 184/1/6 188/1/6
f 184/2/6 186/2/6 189/2/6
f 188/1/6 184/1/6 189/1/6
f 188/2/6 189/2/6 190/2/6
f 189/2/6 186/2/6 190/2/6
f 186/1/6 187/1/6 191/1/6
f 190/2/6 186/2/6 191/2/6
f 188/2/6 190/2/6 192/2/6
f 190/1/6 191/1/6 192/1/6
f 191/1/6 187/1/6 193/1/6
f 192/1/6 191/1/6 193/1/6
f 188/2/6 192/2/6 194/2/6
f 192/2/6 193/2/6 194/2/6
f 194/2/6 193/2/6 195/2/6
f 194/1/6 195/1/6 196/1/6
f 196/1/6 195/1/6 197/1/6
f 195/2/6 193/2/6 198/2/6
f 197/1/6 195/1/6 198/1/6
f 198/2/6 193/2/6 199/2/6
f 196/2/6 197/2/6 200/2/6
f 197/1/6 198/1/6 200/1/6
f 198/1/6 199/1/6 200/1/6
f 200/1/6 199/1/6 201/1/6
f 200/2/6 201/2/6 202/2/6
f 201/1/6 199/1/6 202/1/6
f 199/2/6 193/2/6 203/2/6
f 202/1/6 199/1/6 203/1/6
f 200/2/6 202/2/6 204/2/6
f 196/2/6 200/2/6 204/2/6
f 202/2/6 203/2/6 204/2/6
f 204/2/6 203/2/6 205/2/6
f 204/1/6 205/1/6 206/1/6
f 206/1/6 205/1/6 207/1/6
f 205/2/6 203/2/6 208/2/6
f 207/1/6 205/1/6 208/1/6
f 203/2/6 193/2/6 209/2/6
f 208/2/6 203/2/6 209/2/6
f 207/1/6 208/1/6 210/1/6
f 206/2/6 207/2/6 210/2/6
f 208/1/6 209/1/6 210/1/6
f 210/1/6 209/1/6 211/1/6
f 206/2/6 210/2/6 212/2/6
f 210/2/6 211/2/6 212/2/6
f 211/1/6 209/1/6 213/1/6
f 212/2/6 211/2/6 213/2/6
f 209/2/6 193/2/6 214/2/6
f 213/1/6 209/1/6 214/1/6
f 214/2/6 193/2/6 215/2/6
f 212/1/6 213/1/6 216/1/6
f 213/1/6 214/1/6 216/1/6
f 214/1/6 215/1/6 216/1/6
f 216/1/6 215/1/6 217/1/6
