# MagicaVoxel @ Ephtracy

# group
g lg tree

# material
mtllib lg tree.mtl
usemtl palette

# normals
vn -1 0 0
vn 1 0 0
vn 0 0 1
vn 0 0 -1
vn 0 -1 0
vn 0 1 0

# texcoords
vt 0.771484 0.5
vt 0.794922 0.5
vt 0.865234 0.5

# verts
v -4 3 13
v -4 3 8
v -4 4 13
v -4 4 8
v -4 6 13
v -4 6 8
v -4 7 13
v -4 7 8
v -4 9 13
v -4 9 8
v -4 10 13
v -4 10 8
v -4 12 13
v -4 12 8
v -4 13 13
v -4 13 8
v -3 0 12
v -3 0 9
v -3 3 12
v -3 3 9
v 0 0 12
v 0 0 9
v 0 3 12
v 0 3 9
v 1 3 13
v 1 3 8
v 1 4 13
v 1 4 8
v 1 6 13
v 1 6 8
v 1 7 13
v 1 7 8
v 1 9 13
v 1 9 8
v 1 10 13
v 1 10 8
v 1 12 13
v 1 12 8
v 1 13 13
v 1 13 8
v -4 3 13
v -4 4 13
v -4 6 13
v -4 7 13
v -4 9 13
v -4 10 13
v -4 12 13
v -4 13 13
v 1 3 13
v 1 4 13
v 1 6 13
v 1 7 13
v 1 9 13
v 1 10 13
v 1 12 13
v 1 13 13
v -3 0 12
v -3 3 12
v 0 0 12
v 0 3 12
v -3 0 9
v -3 3 9
v 0 0 9
v 0 3 9
v -4 3 8
v -4 4 8
v -4 6 8
v -4 7 8
v -4 9 8
v -4 10 8
v -4 12 8
v -4 13 8
v 1 3 8
v 1 4 8
v 1 6 8
v 1 7 8
v 1 9 8
v 1 10 8
v 1 12 8
v 1 13 8
v -3 0 12
v 0 0 12
v -3 0 9
v 0 0 9
v -4 3 13
v 1 3 13
v -3 3 12
v 0 3 12
v -3 3 9
v 0 3 9
v -4 3 8
v 1 3 8
v -4 13 13
v 1 13 13
v -4 13 8
v 1 13 8

# faces
f 3/2/1 2/2/1 1/2/1
f 4/2/1 2/2/1 3/2/1
f 5/1/1 4/1/1 3/1/1
f 6/1/1 4/1/1 5/1/1
f 7/2/1 6/2/1 5/2/1
f 8/2/1 6/2/1 7/2/1
f 9/1/1 8/1/1 7/1/1
f 10/1/1 8/1/1 9/1/1
f 11/2/1 10/2/1 9/2/1
f 12/2/1 10/2/1 11/2/1
f 13/1/1 12/1/1 11/1/1
f 14/1/1 12/1/1 13/1/1
f 15/2/1 14/2/1 13/2/1
f 16/2/1 14/2/1 15/2/1
f 19/3/1 18/3/1 17/3/1
f 20/3/1 18/3/1 19/3/1
f 21/3/2 22/3/2 23/3/2
f 23/3/2 22/3/2 24/3/2
f 25/2/2 26/2/2 27/2/2
f 27/2/2 26/2/2 28/2/2
f 27/1/2 28/1/2 29/1/2
f 29/1/2 28/1/2 30/1/2
f 29/2/2 30/2/2 31/2/2
f 31/2/2 30/2/2 32/2/2
f 31/1/2 32/1/2 33/1/2
f 33/1/2 32/1/2 34/1/2
f 33/2/2 34/2/2 35/2/2
f 35/2/2 34/2/2 36/2/2
f 35/1/2 36/1/2 37/1/2
f 37/1/2 36/1/2 38/1/2
f 37/2/2 38/2/2 39/2/2
f 39/2/2 38/2/2 40/2/2
f 49/2/3 42/2/3 41/2/3
f 50/1/3 43/1/3 42/1/3
f 50/2/3 42/2/3 49/2/3
f 51/2/3 44/2/3 43/2/3
f 51/1/3 43/1/3 50/1/3
f 52/1/3 45/1/3 44/1/3
f 52/2/3 44/2/3 51/2/3
f 53/2/3 46/2/3 45/2/3
f 53/1/3 45/1/3 52/1/3
f 54/1/3 47/1/3 46/1/3
f 54/2/3 46/2/3 53/2/3
f 55/2/3 48/2/3 47/2/3
f 55/1/3 47/1/3 54/1/3
f 56/2/3 48/2/3 55/2/3
f 59/3/3 58/3/3 57/3/3
f 60/3/3 58/3/3 59/3/3
f 61/3/4 62/3/4 63/3/4
f 63/3/4 62/3/4 64/3/4
f 65/2/4 66/2/4 73/2/4
f 66/1/4 67/1/4 74/1/4
f 73/2/4 66/2/4 74/2/4
f 67/2/4 68/2/4 75/2/4
f 74/1/4 67/1/4 75/1/4
f 68/1/4 69/1/4 76/1/4
f 75/2/4 68/2/4 76/2/4
f 69/2/4 70/2/4 77/2/4
f 76/1/4 69/1/4 77/1/4
f 70/1/4 71/1/4 78/1/4
f 77/2/4 70/2/4 78/2/4
f 71/2/4 72/2/4 79/2/4
f 78/1/4 71/1/4 79/1/4
f 79/2/4 72/2/4 80/2/4
f 83/3/5 82/3/5 81/3/5
f 84/3/5 82/3/5 83/3/5
f 87/2/5 86/2/5 85/2/5
f 88/2/5 86/2/5 87/2/5
f 89/2/5 87/2/5 85/2/5
f 90/2/5 86/2/5 88/2/5
f 91/2/5 89/2/5 85/2/5
f 91/2/5 90/2/5 89/2/5
f 92/2/5 86/2/5 90/2/5
f 92/2/5 90/2/5 91/2/5
f 93/2/6 94/2/6 95/2/6
f 95/2/6 94/2/6 96/2/6
