# MagicaVoxel @ Ephtracy

# group
g OrangeCar

# material
mtllib OrangeCar.mtl
usemtl palette

# normals
vn -1 0 0
vn 1 0 0
vn 0 0 1
vn 0 0 -1
vn 0 -1 0
vn 0 1 0

# texcoords
vt 0.0917969 0.5
vt 0.111328 0.5
vt 0.337891 0.5
vt 0.353516 0.5
vt 0.525391 0.5
vt 0.958984 0.5
vt 0.962891 0.5
vt 0.994141 0.5

# verts
v -5 4 -0
v -5 4 -2
v -5 5 -0
v -5 5 -2
v -4 0 6
v -4 0 3
v -4 0 -3
v -4 0 -6
v -4 1 7
v -4 1 6
v -4 1 5
v -4 1 4
v -4 1 3
v -4 1 -3
v -4 1 -4
v -4 1 -5
v -4 1 -6
v -4 1 -8
v -4 2 7
v -4 2 6
v -4 2 5
v -4 2 4
v -4 2 3
v -4 2 -3
v -4 2 -4
v -4 2 -5
v -4 2 -6
v -4 2 -8
v -4 3 7
v -4 3 6
v -4 3 3
v -4 3 -3
v -4 3 -6
v -4 3 -8
v -4 4 -0
v -4 4 -2
v -4 5 7
v -4 5 -0
v -4 5 -2
v -4 5 -8
v -3 5 5
v -3 5 4
v -3 5 3
v -3 5 2
v -3 5 -2
v -3 5 -3
v -3 7 4
v -3 7 3
v -3 7 2
v -3 7 -2
v -3 8 5
v -3 8 -3
v -2 1 -6
v -2 1 -7
v -2 2 -6
v -2 2 -7
v 1 1 -7
v 1 1 -8
v 1 2 -7
v 1 2 -8
v 2 0 6
v 2 0 3
v 2 0 -3
v 2 0 -6
v 2 1 6
v 2 1 5
v 2 1 4
v 2 1 3
v 2 1 -3
v 2 1 -4
v 2 1 -5
v 2 1 -6
v 2 1 -7
v 2 2 6
v 2 2 5
v 2 2 4
v 2 2 3
v 2 2 -3
v 2 2 -4
v 2 2 -5
v 2 2 -6
v 2 2 -7
v 2 3 6
v 2 3 3
v 2 3 -3
v 2 3 -6
v -3 0 6
v -3 0 3
v -3 0 -3
v -3 0 -6
v -3 1 6
v -3 1 5
v -3 1 4
v -3 1 3
v -3 1 -3
v -3 1 -4
v -3 1 -5
v -3 1 -6
v -3 1 -7
v -3 2 6
v -3 2 5
v -3 2 4
v -3 2 3
v -3 2 -3
v -3 2 -4
v -3 2 -5
v -3 2 -6
v -3 2 -7
v -3 3 6
v -3 3 3
v -3 3 -3
v -3 3 -6
v -2 1 -7
v -2 1 -8
v -2 2 -7
v -2 2 -8
v 1 1 -6
v 1 1 -7
v 1 2 -6
v 1 2 -7
v 2 5 5
v 2 5 4
v 2 5 3
v 2 5 2
v 2 5 -2
v 2 5 -3
v 2 7 4
v 2 7 3
v 2 7 2
v 2 7 -2
v 2 8 5
v 2 8 -3
v 3 0 6
v 3 0 3
v 3 0 -3
v 3 0 -6
v 3 1 7
v 3 1 6
v 3 1 5
v 3 1 4
v 3 1 3
v 3 1 -3
v 3 1 -4
v 3 1 -5
v 3 1 -6
v 3 1 -8
v 3 2 7
v 3 2 6
v 3 2 5
v 3 2 4
v 3 2 3
v 3 2 -3
v 3 2 -4
v 3 2 -5
v 3 2 -6
v 3 2 -8
v 3 3 7
v 3 3 6
v 3 3 3
v 3 3 -3
v 3 3 -6
v 3 3 -8
v 3 4 -0
v 3 4 -2
v 3 5 7
v 3 5 -0
v 3 5 -2
v 3 5 -8
v 4 4 -0
v 4 4 -2
v 4 5 -0
v 4 5 -2
v -4 1 7
v -4 2 7
v -4 3 7
v -4 5 7
v -2 3 7
v -2 5 7
v 1 3 7
v 1 5 7
v 3 1 7
v 3 2 7
v 3 3 7
v 3 5 7
v -4 0 6
v -4 1 6
v -3 0 6
v -3 1 6
v 2 0 6
v 2 1 6
v 3 0 6
v 3 1 6
v -3 5 5
v -3 8 5
v -2 5 5
v -2 7 5
v 1 5 5
v 1 7 5
v 2 5 5
v 2 8 5
v -3 2 3
v -3 3 3
v 2 2 3
v 2 3 3
v -5 4 -0
v -5 5 -0
v -4 4 -0
v -4 5 -0
v 3 4 -0
v 3 5 -0
v 4 4 -0
v 4 5 -0
v -4 0 -3
v -4 1 -3
v -3 0 -3
v -3 1 -3
v 2 0 -3
v 2 1 -3
v 3 0 -3
v 3 1 -3
v -3 2 -6
v -3 3 -6
v -2 1 -6
v -2 2 -6
v -2 3 -6
v 1 1 -6
v 1 2 -6
v 1 3 -6
v 2 2 -6
v 2 3 -6
v -3 1 -7
v -3 2 -7
v -2 1 -7
v -2 2 -7
v 1 1 -7
v 1 2 -7
v 2 1 -7
v 2 2 -7
v -3 1 6
v -3 2 6
v -3 3 6
v -2 3 6
v 1 3 6
v 2 1 6
v 2 2 6
v 2 3 6
v -4 0 3
v -4 1 3
v -3 0 3
v -3 1 3
v 2 0 3
v 2 1 3
v 3 0 3
v 3 1 3
v -5 4 -2
v -5 5 -2
v -4 4 -2
v -4 5 -2
v 3 4 -2
v 3 5 -2
v 4 4 -2
v 4 5 -2
v -3 2 -3
v -3 3 -3
v -3 5 -3
v -3 8 -3
v -2 3 -3
v -2 5 -3
v -2 7 -3
v 1 3 -3
v 1 5 -3
v 1 7 -3
v 2 2 -3
v 2 3 -3
v 2 5 -3
v 2 8 -3
v -4 0 -6
v -4 1 -6
v -3 0 -6
v -3 1 -6
v 2 0 -6
v 2 1 -6
v 3 0 -6
v 3 1 -6
v -2 1 -7
v -2 2 -7
v 1 1 -7
v 1 2 -7
v -4 1 -8
v -4 2 -8
v -4 3 -8
v -4 5 -8
v -3 3 -8
v -3 4 -8
v -2 1 -8
v -2 2 -8
v -2 3 -8
v -2 4 -8
v -2 5 -8
v 1 1 -8
v 1 2 -8
v 1 3 -8
v 1 4 -8
v 1 5 -8
v 2 3 -8
v 2 4 -8
v 3 1 -8
v 3 2 -8
v 3 3 -8
v 3 5 -8
v -4 0 6
v -3 0 6
v 2 0 6
v 3 0 6
v -4 0 3
v -3 0 3
v 2 0 3
v 3 0 3
v -4 0 -3
v -3 0 -3
v 2 0 -3
v 3 0 -3
v -4 0 -6
v -3 0 -6
v 2 0 -6
v 3 0 -6
v -4 1 7
v 3 1 7
v -4 1 6
v -3 1 6
v 2 1 6
v 3 1 6
v -4 1 3
v -3 1 3
v 2 1 3
v 3 1 3
v -4 1 -3
v -3 1 -3
v 2 1 -3
v 3 1 -3
v -4 1 -6
v -3 1 -6
v -2 1 -6
v 1 1 -6
v 2 1 -6
v 3 1 -6
v -3 1 -7
v -2 1 -7
v 1 1 -7
v 2 1 -7
v -4 1 -8
v -2 1 -8
v 1 1 -8
v 3 1 -8
v -3 2 3
v 2 2 3
v -3 2 -3
v 2 2 -3
v -3 2 -6
v -2 2 -6
v 1 2 -6
v 2 2 -6
v -3 2 -7
v -2 2 -7
v 1 2 -7
v 2 2 -7
v -2 2 -8
v 1 2 -8
v -3 3 6
v -2 3 6
v 1 3 6
v 2 3 6
v -2 3 5
v 1 3 5
v -3 3 3
v 2 3 3
v -3 3 -3
v -2 3 -3
v 1 3 -3
v 2 3 -3
v -3 3 -6
v -2 3 -6
v 1 3 -6
v 2 3 -6
v -5 4 -0
v -4 4 -0
v 3 4 -0
v 4 4 -0
v -5 4 -2
v -4 4 -2
v 3 4 -2
v 4 4 -2
v -4 5 7
v -2 5 7
v 1 5 7
v 3 5 7
v -3 5 5
v -2 5 5
v 1 5 5
v 2 5 5
v -3 5 4
v 2 5 4
v -3 5 3
v 2 5 3
v -3 5 2
v 2 5 2
v -5 5 -0
v -4 5 -0
v 3 5 -0
v 4 5 -0
v -5 5 -2
v -4 5 -2
v -3 5 -2
v 2 5 -2
v 3 5 -2
v 4 5 -2
v -3 5 -3
v -2 5 -3
v 1 5 -3
v 2 5 -3
v -4 5 -8
v -2 5 -8
v 1 5 -8
v 3 5 -8
v -3 8 5
v 2 8 5
v -3 8 -3
v 2 8 -3

# faces
f 3/2/1 2/2/1 1/2/1
f 4/2/1 2/2/1 3/2/1
f 10/8/1 6/8/1 5/8/1
f 11/8/1 6/8/1 10/8/1
f 12/8/1 6/8/1 11/8/1
f 13/8/1 6/8/1 12/8/1
f 14/8/1 8/8/1 7/8/1
f 15/8/1 8/8/1 14/8/1
f 16/8/1 8/8/1 15/8/1
f 17/8/1 8/8/1 16/8/1
f 19/3/1 10/3/1 9/3/1
f 20/8/1 11/8/1 10/8/1
f 20/3/1 10/3/1 19/3/1
f 21/7/1 12/7/1 11/7/1
f 21/8/1 11/8/1 20/8/1
f 22/8/1 13/8/1 12/8/1
f 22/7/1 12/7/1 21/7/1
f 23/3/1 14/3/1 13/3/1
f 23/8/1 13/8/1 22/8/1
f 24/8/1 15/8/1 14/8/1
f 24/3/1 14/3/1 23/3/1
f 25/7/1 16/7/1 15/7/1
f 25/8/1 15/8/1 24/8/1
f 26/8/1 17/8/1 16/8/1
f 26/7/1 16/7/1 25/7/1
f 27/3/1 18/3/1 17/3/1
f 27/8/1 17/8/1 26/8/1
f 28/3/1 18/3/1 27/3/1
f 29/2/1 20/2/1 19/2/1
f 30/8/1 21/8/1 20/8/1
f 30/2/1 20/2/1 29/2/1
f 30/8/1 22/8/1 21/8/1
f 30/8/1 23/8/1 22/8/1
f 31/2/1 24/2/1 23/2/1
f 31/8/1 23/8/1 30/8/1
f 32/8/1 26/8/1 25/8/1
f 32/2/1 24/2/1 31/2/1
f 32/8/1 27/8/1 26/8/1
f 32/8/1 25/8/1 24/8/1
f 33/2/1 28/2/1 27/2/1
f 33/8/1 27/8/1 32/8/1
f 34/2/1 28/2/1 33/2/1
f 35/1/1 31/1/1 30/1/1
f 35/1/1 32/1/1 31/1/1
f 35/1/1 34/1/1 33/1/1
f 35/1/1 33/1/1 32/1/1
f 35/1/1 30/1/1 29/1/1
f 36/1/1 34/1/1 35/1/1
f 37/1/1 35/1/1 29/1/1
f 38/1/1 35/1/1 37/1/1
f 39/1/1 34/1/1 36/1/1
f 40/1/1 34/1/1 39/1/1
f 47/6/1 42/6/1 41/6/1
f 47/8/1 43/8/1 42/8/1
f 48/6/1 44/6/1 43/6/1
f 48/8/1 43/8/1 47/8/1
f 49/8/1 45/8/1 44/8/1
f 49/6/1 44/6/1 48/6/1
f 50/6/1 46/6/1 45/6/1
f 50/8/1 45/8/1 49/8/1
f 51/6/1 49/6/1 48/6/1
f 51/6/1 48/6/1 47/6/1
f 51/6/1 50/6/1 49/6/1
f 51/6/1 47/6/1 41/6/1
f 52/6/1 46/6/1 50/6/1
f 52/6/1 50/6/1 51/6/1
f 55/3/1 54/3/1 53/3/1
f 56/3/1 54/3/1 55/3/1
f 59/3/1 58/3/1 57/3/1
f 60/3/1 58/3/1 59/3/1
f 65/8/1 62/8/1 61/8/1
f 66/8/1 62/8/1 65/8/1
f 67/8/1 62/8/1 66/8/1
f 68/8/1 62/8/1 67/8/1
f 69/8/1 64/8/1 63/8/1
f 70/8/1 64/8/1 69/8/1
f 71/8/1 64/8/1 70/8/1
f 72/8/1 64/8/1 71/8/1
f 74/8/1 66/8/1 65/8/1
f 75/7/1 67/7/1 66/7/1
f 75/8/1 66/8/1 74/8/1
f 76/8/1 68/8/1 67/8/1
f 76/7/1 67/7/1 75/7/1
f 77/3/1 69/3/1 68/3/1
f 77/8/1 68/8/1 76/8/1
f 78/8/1 70/8/1 69/8/1
f 78/3/1 69/3/1 77/3/1
f 79/7/1 71/7/1 70/7/1
f 79/8/1 70/8/1 78/8/1
f 80/8/1 72/8/1 71/8/1
f 80/7/1 71/7/1 79/7/1
f 81/3/1 73/3/1 72/3/1
f 81/8/1 72/8/1 80/8/1
f 82/3/1 73/3/1 81/3/1
f 83/8/1 75/8/1 74/8/1
f 83/8/1 76/8/1 75/8/1
f 83/8/1 77/8/1 76/8/1
f 84/8/1 77/8/1 83/8/1
f 85/8/1 80/8/1 79/8/1
f 85/8/1 81/8/1 80/8/1
f 85/8/1 79/8/1 78/8/1
f 86/8/1 81/8/1 85/8/1
f 87/8/2 88/8/2 91/8/2
f 91/8/2 88/8/2 92/8/2
f 92/8/2 88/8/2 93/8/2
f 93/8/2 88/8/2 94/8/2
f 89/8/2 90/8/2 95/8/2
f 95/8/2 90/8/2 96/8/2
f 96/8/2 90/8/2 97/8/2
f 97/8/2 90/8/2 98/8/2
f 91/8/2 92/8/2 100/8/2
f 92/7/2 93/7/2 101/7/2
f 100/8/2 92/8/2 101/8/2
f 93/8/2 94/8/2 102/8/2
f 101/7/2 93/7/2 102/7/2
f 94/3/2 95/3/2 103/3/2
f 102/8/2 94/8/2 103/8/2
f 95/8/2 96/8/2 104/8/2
f 103/3/2 95/3/2 104/3/2
f 96/7/2 97/7/2 105/7/2
f 104/8/2 96/8/2 105/8/2
f 97/8/2 98/8/2 106/8/2
f 105/7/2 97/7/2 106/7/2
f 98/3/2 99/3/2 107/3/2
f 106/8/2 98/8/2 107/8/2
f 107/3/2 99/3/2 108/3/2
f 100/8/2 101/8/2 109/8/2
f 101/8/2 102/8/2 109/8/2
f 102/8/2 103/8/2 109/8/2
f 109/8/2 103/8/2 110/8/2
f 105/8/2 106/8/2 111/8/2
f 106/8/2 107/8/2 111/8/2
f 104/8/2 105/8/2 111/8/2
f 111/8/2 107/8/2 112/8/2
f 113/3/2 114/3/2 115/3/2
f 115/3/2 114/3/2 116/3/2
f 117/3/2 118/3/2 119/3/2
f 119/3/2 118/3/2 120/3/2
f 121/6/2 122/6/2 127/6/2
f 122/8/2 123/8/2 127/8/2
f 123/6/2 124/6/2 128/6/2
f 127/8/2 123/8/2 128/8/2
f 124/8/2 125/8/2 129/8/2
f 128/6/2 124/6/2 129/6/2
f 125/6/2 126/6/2 130/6/2
f 129/8/2 125/8/2 130/8/2
f 128/6/2 129/6/2 131/6/2
f 127/6/2 128/6/2 131/6/2
f 129/6/2 130/6/2 131/6/2
f 121/6/2 127/6/2 131/6/2
f 130/6/2 126/6/2 132/6/2
f 131/6/2 130/6/2 132/6/2
f 133/8/2 134/8/2 138/8/2
f 138/8/2 134/8/2 139/8/2
f 139/8/2 134/8/2 140/8/2
f 140/8/2 134/8/2 141/8/2
f 135/8/2 136/8/2 142/8/2
f 142/8/2 136/8/2 143/8/2
f 143/8/2 136/8/2 144/8/2
f 144/8/2 136/8/2 145/8/2
f 137/3/2 138/3/2 147/3/2
f 138/8/2 139/8/2 148/8/2
f 147/3/2 138/3/2 148/3/2
f 139/7/2 140/7/2 149/7/2
f 148/8/2 139/8/2 149/8/2
f 140/8/2 141/8/2 150/8/2
f 149/7/2 140/7/2 150/7/2
f 141/3/2 142/3/2 151/3/2
f 150/8/2 141/8/2 151/8/2
f 142/8/2 143/8/2 152/8/2
f 151/3/2 142/3/2 152/3/2
f 143/7/2 144/7/2 153/7/2
f 152/8/2 143/8/2 153/8/2
f 144/8/2 145/8/2 154/8/2
f 153/7/2 144/7/2 154/7/2
f 145/3/2 146/3/2 155/3/2
f 154/8/2 145/8/2 155/8/2
f 155/3/2 146/3/2 156/3/2
f 147/2/2 148/2/2 157/2/2
f 148/8/2 149/8/2 158/8/2
f 157/2/2 148/2/2 158/2/2
f 149/8/2 150/8/2 158/8/2
f 150/8/2 151/8/2 158/8/2
f 151/2/2 152/2/2 159/2/2
f 158/8/2 151/8/2 159/8/2
f 153/8/2 154/8/2 160/8/2
f 159/2/2 152/2/2 160/2/2
f 154/8/2 155/8/2 160/8/2
f 152/8/2 153/8/2 160/8/2
f 155/2/2 156/2/2 161/2/2
f 160/8/2 155/8/2 161/8/2
f 161/2/2 156/2/2 162/2/2
f 158/1/2 159/1/2 163/1/2
f 159/1/2 160/1/2 163/1/2
f 161/1/2 162/1/2 163/1/2
f 160/1/2 161/1/2 163/1/2
f 157/1/2 158/1/2 163/1/2
f 163/1/2 162/1/2 164/1/2
f 157/1/2 163/1/2 165/1/2
f 165/1/2 163/1/2 166/1/2
f 164/1/2 162/1/2 167/1/2
f 167/1/2 162/1/2 168/1/2
f 169/2/2 170/2/2 171/2/2
f 171/2/2 170/2/2 172/2/2
f 177/2/3 175/2/3 174/2/3
f 177/1/3 176/1/3 175/1/3
f 178/1/3 176/1/3 177/1/3
f 179/2/3 177/2/3 174/2/3
f 179/2/3 178/2/3 177/2/3
f 180/2/3 178/2/3 179/2/3
f 181/3/3 174/3/3 173/3/3
f 182/2/3 179/2/3 174/2/3
f 182/3/3 174/3/3 181/3/3
f 183/1/3 180/1/3 179/1/3
f 183/2/3 179/2/3 182/2/3
f 184/1/3 180/1/3 183/1/3
f 187/8/3 186/8/3 185/8/3
f 188/8/3 186/8/3 187/8/3
f 191/8/3 190/8/3 189/8/3
f 192/8/3 190/8/3 191/8/3
f 195/6/3 194/6/3 193/6/3
f 196/6/3 194/6/3 195/6/3
f 197/8/3 196/8/3 195/8/3
f 198/6/3 194/6/3 196/6/3
f 198/8/3 196/8/3 197/8/3
f 199/6/3 198/6/3 197/6/3
f 200/6/3 194/6/3 198/6/3
f 200/6/3 198/6/3 199/6/3
f 203/5/3 202/5/3 201/5/3
f 204/5/3 202/5/3 203/5/3
f 207/2/3 206/2/3 205/2/3
f 208/2/3 206/2/3 207/2/3
f 211/2/3 210/2/3 209/2/3
f 212/2/3 210/2/3 211/2/3
f 215/8/3 214/8/3 213/8/3
f 216/8/3 214/8/3 215/8/3
f 219/8/3 218/8/3 217/8/3
f 220/8/3 218/8/3 219/8/3
f 224/5/3 222/5/3 221/5/3
f 225/5/3 222/5/3 224/5/3
f 226/3/3 224/3/3 223/3/3
f 227/5/3 225/5/3 224/5/3
f 227/3/3 224/3/3 226/3/3
f 228/5/3 225/5/3 227/5/3
f 229/5/3 228/5/3 227/5/3
f 230/5/3 228/5/3 229/5/3
f 233/3/3 232/3/3 231/3/3
f 234/3/3 232/3/3 233/3/3
f 237/3/3 236/3/3 235/3/3
f 238/3/3 236/3/3 237/3/3
f 240/2/4 241/2/4 242/2/4
f 240/2/4 242/2/4 243/2/4
f 239/3/4 240/3/4 244/3/4
f 240/2/4 243/2/4 245/2/4
f 244/3/4 240/3/4 245/3/4
f 245/2/4 243/2/4 246/2/4
f 247/8/4 248/8/4 249/8/4
f 249/8/4 248/8/4 250/8/4
f 251/8/4 252/8/4 253/8/4
f 253/8/4 252/8/4 254/8/4
f 255/2/4 256/2/4 257/2/4
f 257/2/4 256/2/4 258/2/4
f 259/2/4 260/2/4 261/2/4
f 261/2/4 260/2/4 262/2/4
f 263/5/4 264/5/4 267/5/4
f 265/6/4 266/6/4 268/6/4
f 268/6/4 266/6/4 269/6/4
f 263/5/4 267/5/4 270/5/4
f 268/8/4 269/8/4 271/8/4
f 269/6/4 266/6/4 272/6/4
f 271/8/4 269/8/4 272/8/4
f 263/5/4 270/5/4 273/5/4
f 273/5/4 270/5/4 274/5/4
f 271/6/4 272/6/4 275/6/4
f 272/6/4 266/6/4 276/6/4
f 275/6/4 272/6/4 276/6/4
f 277/8/4 278/8/4 279/8/4
f 279/8/4 278/8/4 280/8/4
f 281/8/4 282/8/4 283/8/4
f 283/8/4 282/8/4 284/8/4
f 285/3/4 286/3/4 287/3/4
f 287/3/4 286/3/4 288/3/4
f 290/2/4 291/2/4 293/2/4
f 291/1/4 292/1/4 293/1/4
f 293/1/4 292/1/4 294/1/4
f 289/3/4 290/3/4 295/3/4
f 290/2/4 293/2/4 296/2/4
f 295/3/4 290/3/4 296/3/4
f 293/6/4 294/6/4 297/6/4
f 296/2/4 293/2/4 297/2/4
f 294/1/4 292/1/4 298/1/4
f 297/6/4 294/6/4 298/6/4
f 298/1/4 292/1/4 299/1/4
f 296/2/4 297/2/4 301/2/4
f 298/2/4 299/2/4 301/2/4
f 297/2/4 298/2/4 301/2/4
f 301/2/4 299/2/4 302/2/4
f 302/2/4 299/2/4 303/2/4
f 303/2/4 299/2/4 304/2/4
f 301/2/4 302/2/4 305/2/4
f 302/6/4 303/6/4 305/6/4
f 303/1/4 304/1/4 306/1/4
f 305/6/4 303/6/4 306/6/4
f 300/3/4 301/3/4 307/3/4
f 301/2/4 305/2/4 308/2/4
f 307/3/4 301/3/4 308/3/4
f 305/1/4 306/1/4 309/1/4
f 308/2/4 305/2/4 309/2/4
f 306/1/4 304/1/4 310/1/4
f 309/1/4 306/1/4 310/1/4
f 315/8/5 312/8/5 311/8/5
f 316/8/5 312/8/5 315/8/5
f 317/8/5 314/8/5 313/8/5
f 318/8/5 314/8/5 317/8/5
f 323/8/5 320/8/5 319/8/5
f 324/8/5 320/8/5 323/8/5
f 325/8/5 322/8/5 321/8/5
f 326/8/5 322/8/5 325/8/5
f 329/3/5 328/3/5 327/3/5
f 330/3/5 328/3/5 329/3/5
f 331/3/5 328/3/5 330/3/5
f 332/3/5 328/3/5 331/3/5
f 337/3/5 334/3/5 333/3/5
f 338/3/5 334/3/5 337/3/5
f 339/3/5 336/3/5 335/3/5
f 340/3/5 336/3/5 339/3/5
f 347/3/5 342/3/5 341/3/5
f 348/3/5 344/3/5 343/3/5
f 349/3/5 344/3/5 348/3/5
f 350/3/5 346/3/5 345/3/5
f 351/3/5 347/3/5 341/3/5
f 351/3/5 348/3/5 347/3/5
f 352/3/5 348/3/5 351/3/5
f 353/3/5 350/3/5 349/3/5
f 354/3/5 346/3/5 350/3/5
f 354/3/5 350/3/5 353/3/5
f 357/5/5 356/5/5 355/5/5
f 358/5/5 356/5/5 357/5/5
f 363/5/5 360/5/5 359/5/5
f 364/5/5 360/5/5 363/5/5
f 365/5/5 362/5/5 361/5/5
f 366/5/5 362/5/5 365/5/5
f 367/2/5 365/2/5 364/2/5
f 368/2/5 365/2/5 367/2/5
f 373/4/5 370/4/5 369/4/5
f 373/5/5 371/5/5 370/5/5
f 374/4/5 372/4/5 371/4/5
f 374/5/5 371/5/5 373/5/5
f 375/4/5 373/4/5 369/4/5
f 375/4/5 374/4/5 373/4/5
f 376/4/5 372/4/5 374/4/5
f 376/4/5 374/4/5 375/4/5
f 381/4/5 378/4/5 377/4/5
f 382/5/5 379/5/5 378/5/5
f 382/4/5 378/4/5 381/4/5
f 383/4/5 380/4/5 379/4/5
f 383/5/5 379/5/5 382/5/5
f 384/4/5 380/4/5 383/4/5
f 389/2/5 386/2/5 385/2/5
f 390/2/5 386/2/5 389/2/5
f 391/2/5 388/2/5 387/2/5
f 392/2/5 388/2/5 391/2/5
f 393/1/6 394/1/6 397/1/6
f 394/2/6 395/2/6 398/2/6
f 397/1/6 394/1/6 398/1/6
f 395/1/6 396/1/6 399/1/6
f 398/2/6 395/2/6 399/2/6
f 399/1/6 396/1/6 400/1/6
f 393/1/6 397/1/6 401/1/6
f 400/1/6 396/1/6 402/1/6
f 393/1/6 401/1/6 403/1/6
f 402/1/6 396/1/6 404/1/6
f 393/1/6 403/1/6 405/1/6
f 404/1/6 396/1/6 406/1/6
f 393/1/6 405/1/6 408/1/6
f 406/1/6 396/1/6 409/1/6
f 407/2/6 408/2/6 411/2/6
f 408/1/6 405/1/6 412/1/6
f 411/2/6 408/2/6 412/2/6
f 412/1/6 405/1/6 413/1/6
f 406/1/6 409/1/6 414/1/6
f 409/2/6 410/2/6 415/2/6
f 414/1/6 409/1/6 415/1/6
f 415/2/6 410/2/6 416/2/6
f 412/1/6 413/1/6 417/1/6
f 414/1/6 415/1/6 420/1/6
f 412/1/6 417/1/6 421/1/6
f 417/1/6 418/1/6 421/1/6
f 418/2/6 419/2/6 422/2/6
f 421/1/6 418/1/6 422/1/6
f 419/1/6 420/1/6 423/1/6
f 422/2/6 419/2/6 423/2/6
f 420/1/6 415/1/6 424/1/6
f 423/1/6 420/1/6 424/1/6
f 425/6/6 426/6/6 427/6/6
f 427/6/6 426/6/6 428/6/6
